<svg width="155" height="155" viewBox="0 0 155 155" fill="none" xmlns="http://www.w3.org/2000/svg">
<path d="M34.9142 36.4976L29.8011 46.6302L18.3614 48.2603C16.3099 48.5511 15.4877 51.0231 16.9754 52.4389L25.2518 60.3215L23.2943 71.4567C22.942 73.4694 25.1109 74.9771 26.9275 74.0357L37.1614 68.7781L47.3953 74.0357C49.2119 74.9694 51.3808 73.4694 51.0285 71.4567L49.071 60.3215L57.3474 52.4389C58.8351 51.0231 58.0129 48.5511 55.9614 48.2603L44.5217 46.6302L39.4086 36.4976C38.4925 34.6915 35.8381 34.6685 34.9142 36.4976Z" fill="#5B6297" fill-opacity="0.59"/>
<path d="M113.291 36.4976L108.178 46.6302L96.7381 48.2603C94.6866 48.5511 93.8645 51.0231 95.3522 52.4389L103.629 60.3215L101.671 71.4567C101.319 73.4694 103.488 74.9771 105.304 74.0357L115.538 68.7781L125.772 74.0357C127.589 74.9694 129.758 73.4694 129.405 71.4567L127.448 60.3215L135.724 52.4389C137.212 51.0231 136.39 48.5511 134.338 48.2603L122.898 46.6302L117.785 36.4976C116.869 34.6915 114.215 34.6685 113.291 36.4976Z" fill="#5B6297" fill-opacity="0.59"/>
<path d="M73.2326 14.0422L66.1404 28.0182L50.2723 30.2666C47.4267 30.6677 46.2863 34.0773 48.3499 36.0301L59.8301 46.9027L57.1148 62.2616C56.626 65.0378 59.6346 67.1173 62.1543 65.8189L76.3498 58.567L90.5452 65.8189C93.065 67.1067 96.0735 65.0378 95.5848 62.2616L92.8695 46.9027L104.35 36.0301C106.413 34.0773 105.273 30.6677 102.427 30.2666L86.5592 28.0182L79.4669 14.0422C78.1962 11.551 74.5143 11.5193 73.2326 14.0422Z" fill="#5B6297"/>
</svg>
