<svg width="116" height="93" viewBox="0 0 116 93" fill="none" xmlns="http://www.w3.org/2000/svg">
<g clip-path="url(#clip0_16_67)">
<path d="M92.8179 34.6955L91.3316 37.293C90.7879 38.2557 89.6279 38.6553 88.5947 38.2738C86.456 37.4746 84.4985 36.3303 82.7766 34.8953C81.9429 34.2051 81.7254 32.9881 82.2691 32.0436L83.7554 29.4461C82.5048 27.993 81.526 26.3037 80.8735 24.4692H77.8829C76.7954 24.4692 75.8529 23.6881 75.6716 22.5983C75.3091 20.4186 75.291 18.1299 75.6716 15.8594C75.8529 14.7696 76.7954 13.9703 77.8829 13.9703H80.8735C81.526 12.1358 82.5048 10.4465 83.7554 8.99338L82.2691 6.39592C81.7254 5.45139 81.9248 4.2344 82.7766 3.54416C84.4985 2.1092 86.4741 0.964865 88.5947 0.165646C89.6279 -0.215799 90.7879 0.18381 91.3316 1.14651L92.8179 3.74397C94.721 3.39885 96.6604 3.39885 98.5635 3.74397L100.05 1.14651C100.594 0.18381 101.754 -0.215799 102.787 0.165646C104.925 0.964865 106.883 2.1092 108.605 3.54416C109.439 4.2344 109.656 5.45139 109.112 6.39592L107.626 8.99338C108.877 10.4465 109.855 12.1358 110.508 13.9703H113.499C114.586 13.9703 115.529 14.7514 115.71 15.8412C116.072 18.0209 116.09 20.3096 115.71 22.5801C115.529 23.6699 114.586 24.4692 113.499 24.4692H110.508C109.855 26.3037 108.877 27.993 107.626 29.4461L109.112 32.0436C109.656 32.9881 109.457 34.2051 108.605 34.8953C106.883 36.3303 104.907 37.4746 102.787 38.2738C101.754 38.6553 100.594 38.2557 100.05 37.293L98.5635 34.6955C96.6785 35.0406 94.721 35.0406 92.8179 34.6955ZM90.9148 24.0151C97.8929 29.3916 105.85 21.4176 100.485 14.4244C93.5066 9.02971 85.5498 17.0219 90.9148 24.0151ZM70.0166 51.9695L76.1248 55.0211C77.9554 56.0746 78.7529 58.3088 78.0279 60.3069C76.4148 64.7026 73.2429 68.735 70.3066 72.2588C68.9654 73.8754 66.6454 74.275 64.8148 73.2215L59.5404 70.1699C56.6404 72.6584 53.2691 74.6383 49.5898 75.9279V82.0311C49.5898 84.1381 48.0854 85.9545 46.0191 86.3178C41.5604 87.0807 36.8841 87.117 32.2622 86.3178C30.1779 85.9545 28.6372 84.1563 28.6372 82.0311V75.9279C24.9579 74.6201 21.5866 72.6584 18.6866 70.1699L13.4122 73.2033C11.5997 74.2569 9.26162 73.8572 7.92037 72.2406C4.98412 68.7168 1.88475 64.6844 0.271624 60.3069C-0.453376 58.327 0.344124 56.0928 2.17475 55.0211L8.21037 51.9695C7.5035 48.1733 7.5035 44.268 8.21037 40.4535L2.17475 37.3838C0.344124 36.3303 -0.471501 34.0961 0.271624 32.1162C1.88475 27.7205 4.98412 23.6881 7.92037 20.1643C9.26162 18.5477 11.5816 18.1481 13.4122 19.2016L18.6866 22.2531C21.5866 19.7647 24.9579 17.7848 28.6372 16.4951V10.3738C28.6372 8.28498 30.1235 6.46858 32.1898 6.10529C36.6485 5.3424 41.3429 5.30608 45.9648 6.08713C48.0491 6.45041 49.5898 8.24865 49.5898 10.3738V16.477C53.2691 17.7848 56.6404 19.7465 59.5404 22.235L64.8148 19.1834C66.6273 18.1299 68.9654 18.5295 70.3066 20.1461C73.2429 23.6699 76.3241 27.7024 77.9373 32.0981C78.6623 34.0779 77.9554 36.3121 76.1248 37.3838L70.0166 40.4354C70.7235 44.2498 70.7235 48.1551 70.0166 51.9695ZM48.7016 55.8022C59.4316 41.8158 43.4997 25.8496 29.5435 36.6028C18.8135 50.5891 34.7454 66.5553 48.7016 55.8022ZM92.8179 88.9879L91.3316 91.5854C90.7879 92.5481 89.6279 92.9477 88.5947 92.5662C86.456 91.767 84.4985 90.6227 82.7766 89.1877C81.9429 88.4975 81.7254 87.2805 82.2691 86.3359L83.7554 83.7385C82.5048 82.2854 81.526 80.5961 80.8735 78.7615H77.8829C76.7954 78.7615 75.8529 77.9805 75.6716 76.8906C75.3091 74.7109 75.291 72.4223 75.6716 70.1518C75.8529 69.0619 76.7954 68.2627 77.8829 68.2627H80.8735C81.526 66.4281 82.5048 64.7389 83.7554 63.2858L82.2691 60.6883C81.7254 59.7438 81.9248 58.5268 82.7766 57.8365C84.4985 56.4016 86.4741 55.2572 88.5947 54.458C89.6279 54.0766 90.7879 54.4762 91.3316 55.4389L92.8179 58.0363C94.721 57.6912 96.6604 57.6912 98.5635 58.0363L100.05 55.4389C100.594 54.4762 101.754 54.0766 102.787 54.458C104.925 55.2572 106.883 56.4016 108.605 57.8365C109.439 58.5268 109.656 59.7438 109.112 60.6883L107.626 63.2858C108.877 64.7389 109.855 66.4281 110.508 68.2627H113.499C114.586 68.2627 115.529 69.0438 115.71 70.1336C116.072 72.3133 116.09 74.602 115.71 76.8725C115.529 77.9623 114.586 78.7615 113.499 78.7615H110.508C109.855 80.5961 108.877 82.2854 107.626 83.7385L109.112 86.3359C109.656 87.2805 109.457 88.4975 108.605 89.1877C106.883 90.6227 104.907 91.767 102.787 92.5662C101.754 92.9477 100.594 92.5481 100.05 91.5854L98.5635 88.9879C96.6785 89.333 94.721 89.333 92.8179 88.9879ZM90.9148 78.2893C97.8929 83.6658 105.85 75.6918 100.485 68.6986C93.5066 63.3221 85.5498 71.2961 90.9148 78.2893Z" fill="#5B6297"/>
</g>
<defs>
<clipPath id="clip0_16_67">
<rect width="116" height="93" fill="white"/>
</clipPath>
</defs>
</svg>
