<svg width="140" height="140" viewBox="0 0 140 140" fill="none" xmlns="http://www.w3.org/2000/svg">
<path d="M84.5918 106.471L106.467 84.5963L25.5191 3.64446L4.16118 0.0377919C1.75496 -0.306742 -0.306736 1.75499 0.0377911 4.16126L3.64712 25.5196L84.5918 106.471V106.471ZM138.715 126.345L122.498 110.127L131.149 93.9862C132.06 92.2854 131.751 90.1909 130.387 88.8264L125.591 84.033C123.882 82.324 121.112 82.324 119.403 84.033L84.0286 119.408C82.3196 121.117 82.3196 123.887 84.0286 125.593L88.8219 130.389C89.486 131.054 90.3464 131.486 91.2756 131.624C92.2048 131.761 93.1536 131.596 93.9816 131.152L110.125 122.501L126.342 138.718C128.051 140.427 130.821 140.427 132.53 138.718L138.715 132.533C140.424 130.824 140.424 128.054 138.715 126.345ZM136.353 25.5196L139.962 4.16126C140.307 1.75499 138.242 -0.306742 135.839 0.0377919L114.481 3.6472L76.1865 41.937L98.0612 63.8122L136.353 25.5196V25.5196ZM41.9361 76.188L27.3429 90.7815L20.5918 84.0303C18.8829 82.3213 16.113 82.3213 14.4068 84.0303L9.61072 88.8237C8.94643 89.4878 8.51356 90.3482 8.37617 91.2775C8.23878 92.2067 8.40416 93.1555 8.84784 93.9835L17.4993 110.127L1.28192 126.345C-0.427047 128.054 -0.427047 130.824 1.28192 132.533L7.467 138.718C9.17596 140.427 11.9458 140.427 13.6548 138.718L29.8722 122.501L46.013 131.152C47.7138 132.063 49.8083 131.754 51.1727 130.389L55.966 125.593C57.675 123.884 57.675 121.114 55.966 119.408L49.2177 112.657L63.8108 98.0632L41.9361 76.188Z" fill="#F4F1F2"/>
</svg>
