<svg width="199" height="28" viewBox="0 0 199 28" fill="none" xmlns="http://www.w3.org/2000/svg">
<path d="M14.7656 16.1543H4.46484V27H0.0175781V1.40625H16.2773V4.99219H4.46484V12.6035H14.7656V16.1543ZM27.3867 27.3516C24.6797 27.3516 22.4824 26.502 20.7949 24.8027C19.1191 23.0918 18.2812 20.8184 18.2812 17.9824V17.4551C18.2812 15.5566 18.6445 13.8633 19.3711 12.375C20.1094 10.875 21.1406 9.70898 22.4648 8.87695C23.7891 8.04492 25.2656 7.62891 26.8945 7.62891C29.4844 7.62891 31.4824 8.45508 32.8887 10.1074C34.3066 11.7598 35.0156 14.0977 35.0156 17.1211V18.8438H22.5879C22.7168 20.4141 23.2383 21.6562 24.1523 22.5703C25.0781 23.4844 26.2383 23.9414 27.6328 23.9414C29.5898 23.9414 31.1836 23.1504 32.4141 21.5684L34.7168 23.7656C33.9551 24.9023 32.9355 25.7871 31.6582 26.4199C30.3926 27.041 28.9688 27.3516 27.3867 27.3516ZM26.877 11.0566C25.7051 11.0566 24.7559 11.4668 24.0293 12.2871C23.3145 13.1074 22.8574 14.25 22.6582 15.7148H30.7969V15.3984C30.7031 13.9688 30.3223 12.8906 29.6543 12.1641C28.9863 11.4258 28.0605 11.0566 26.877 11.0566ZM46.7227 27.3516C44.0156 27.3516 41.8184 26.502 40.1309 24.8027C38.4551 23.0918 37.6172 20.8184 37.6172 17.9824V17.4551C37.6172 15.5566 37.9805 13.8633 38.707 12.375C39.4453 10.875 40.4766 9.70898 41.8008 8.87695C43.125 8.04492 44.6016 7.62891 46.2305 7.62891C48.8203 7.62891 50.8184 8.45508 52.2246 10.1074C53.6426 11.7598 54.3516 14.0977 54.3516 17.1211V18.8438H41.9238C42.0527 20.4141 42.5742 21.6562 43.4883 22.5703C44.4141 23.4844 45.5742 23.9414 46.9688 23.9414C48.9258 23.9414 50.5195 23.1504 51.75 21.5684L54.0527 23.7656C53.291 24.9023 52.2715 25.7871 50.9941 26.4199C49.7285 27.041 48.3047 27.3516 46.7227 27.3516ZM46.2129 11.0566C45.041 11.0566 44.0918 11.4668 43.3652 12.2871C42.6504 13.1074 42.1934 14.25 41.9941 15.7148H50.1328V15.3984C50.0391 13.9688 49.6582 12.8906 48.9902 12.1641C48.3223 11.4258 47.3965 11.0566 46.2129 11.0566ZM56.8828 17.3496C56.8828 14.4199 57.5625 12.0703 58.9219 10.3008C60.2812 8.51953 62.1035 7.62891 64.3887 7.62891C66.4043 7.62891 68.0332 8.33203 69.2754 9.73828V0H73.5469V27H69.6797L69.4688 25.0312C68.1914 26.5781 66.4863 27.3516 64.3535 27.3516C62.127 27.3516 60.3223 26.4551 58.9395 24.6621C57.5684 22.8691 56.8828 20.4316 56.8828 17.3496ZM61.1543 17.7188C61.1543 19.6523 61.5234 21.1641 62.2617 22.2539C63.0117 23.332 64.0723 23.8711 65.4434 23.8711C67.1895 23.8711 68.4668 23.0918 69.2754 21.5332V13.4121C68.4902 11.8887 67.2246 11.127 65.4785 11.127C64.0957 11.127 63.0293 11.6777 62.2793 12.7793C61.5293 13.8691 61.1543 15.5156 61.1543 17.7188ZM93.1641 16.1543H82.8633V27H78.416V1.40625H94.6758V4.99219H82.8633V12.6035H93.1641V16.1543ZM105.785 27.3516C103.078 27.3516 100.881 26.502 99.1934 24.8027C97.5176 23.0918 96.6797 20.8184 96.6797 17.9824V17.4551C96.6797 15.5566 97.043 13.8633 97.7695 12.375C98.5078 10.875 99.5391 9.70898 100.863 8.87695C102.188 8.04492 103.664 7.62891 105.293 7.62891C107.883 7.62891 109.881 8.45508 111.287 10.1074C112.705 11.7598 113.414 14.0977 113.414 17.1211V18.8438H100.986C101.115 20.4141 101.637 21.6562 102.551 22.5703C103.477 23.4844 104.637 23.9414 106.031 23.9414C107.988 23.9414 109.582 23.1504 110.812 21.5684L113.115 23.7656C112.354 24.9023 111.334 25.7871 110.057 26.4199C108.791 27.041 107.367 27.3516 105.785 27.3516ZM105.275 11.0566C104.104 11.0566 103.154 11.4668 102.428 12.2871C101.713 13.1074 101.256 14.25 101.057 15.7148H109.195V15.3984C109.102 13.9688 108.721 12.8906 108.053 12.1641C107.385 11.4258 106.459 11.0566 105.275 11.0566ZM127.406 21.832C127.406 21.0703 127.09 20.4902 126.457 20.0918C125.836 19.6934 124.799 19.3418 123.346 19.0371C121.893 18.7324 120.68 18.3457 119.707 17.877C117.574 16.8457 116.508 15.3516 116.508 13.3945C116.508 11.7539 117.199 10.3828 118.582 9.28125C119.965 8.17969 121.723 7.62891 123.855 7.62891C126.129 7.62891 127.963 8.19141 129.357 9.31641C130.764 10.4414 131.467 11.9004 131.467 13.6934H127.195C127.195 12.873 126.891 12.1934 126.281 11.6543C125.672 11.1035 124.863 10.8281 123.855 10.8281C122.918 10.8281 122.15 11.0449 121.553 11.4785C120.967 11.9121 120.674 12.4922 120.674 13.2188C120.674 13.875 120.949 14.3848 121.5 14.748C122.051 15.1113 123.164 15.4805 124.84 15.8555C126.516 16.2188 127.828 16.6582 128.777 17.1738C129.738 17.6777 130.447 18.2871 130.904 19.002C131.373 19.7168 131.607 20.584 131.607 21.6035C131.607 23.3145 130.898 24.7031 129.48 25.7695C128.062 26.8242 126.205 27.3516 123.908 27.3516C122.35 27.3516 120.961 27.0703 119.742 26.5078C118.523 25.9453 117.574 25.1719 116.895 24.1875C116.215 23.2031 115.875 22.1426 115.875 21.0059H120.023C120.082 22.0137 120.463 22.793 121.166 23.3438C121.869 23.8828 122.801 24.1523 123.961 24.1523C125.086 24.1523 125.941 23.9414 126.527 23.5195C127.113 23.0859 127.406 22.5234 127.406 21.832ZM140.695 3.35742V7.98047H144.053V11.1445H140.695V21.7617C140.695 22.4883 140.836 23.0156 141.117 23.3438C141.41 23.6602 141.926 23.8184 142.664 23.8184C143.156 23.8184 143.654 23.7598 144.158 23.6426V26.9473C143.186 27.2168 142.248 27.3516 141.346 27.3516C138.064 27.3516 136.424 25.541 136.424 21.9199V11.1445H133.295V7.98047H136.424V3.35742H140.695ZM151.875 27H147.604V7.98047H151.875V27ZM147.34 3.04102C147.34 2.38477 147.545 1.83984 147.955 1.40625C148.377 0.972656 148.975 0.755859 149.748 0.755859C150.521 0.755859 151.119 0.972656 151.541 1.40625C151.963 1.83984 152.174 2.38477 152.174 3.04102C152.174 3.68555 151.963 4.22461 151.541 4.6582C151.119 5.08008 150.521 5.29102 149.748 5.29102C148.975 5.29102 148.377 5.08008 147.955 4.6582C147.545 4.22461 147.34 3.68555 147.34 3.04102ZM163.248 21.5859L167.273 7.98047H171.686L165.094 27H161.385L154.74 7.98047H159.17L163.248 21.5859ZM185.449 27C185.262 26.6367 185.098 26.0449 184.957 25.2246C183.598 26.6426 181.934 27.3516 179.965 27.3516C178.055 27.3516 176.496 26.8066 175.289 25.7168C174.082 24.627 173.479 23.2793 173.479 21.6738C173.479 19.6465 174.229 18.0938 175.729 17.0156C177.24 15.9258 179.396 15.3809 182.197 15.3809H184.816V14.1328C184.816 13.1484 184.541 12.3633 183.99 11.7773C183.439 11.1797 182.602 10.8809 181.477 10.8809C180.504 10.8809 179.707 11.127 179.086 11.6191C178.465 12.0996 178.154 12.7148 178.154 13.4648H173.883C173.883 12.4219 174.229 11.4492 174.92 10.5469C175.611 9.63281 176.549 8.91797 177.732 8.40234C178.928 7.88672 180.258 7.62891 181.723 7.62891C183.949 7.62891 185.725 8.19141 187.049 9.31641C188.373 10.4297 189.053 12 189.088 14.0273V22.6055C189.088 24.3164 189.328 25.6816 189.809 26.7012V27H185.449ZM180.756 23.9238C181.6 23.9238 182.391 23.7188 183.129 23.3086C183.879 22.8984 184.441 22.3477 184.816 21.6562V18.0703H182.514C180.932 18.0703 179.742 18.3457 178.945 18.8965C178.148 19.4473 177.75 20.2266 177.75 21.2344C177.75 22.0547 178.02 22.7109 178.559 23.2031C179.109 23.6836 179.842 23.9238 180.756 23.9238ZM198.105 27H193.834V0H198.105V27Z" fill="#D9D6E7"/>
</svg>
