<svg _ngcontent-serverApp-c8="" xml:space="preserve" xmlns:xlink="http://www.w3.org/1999/xlink" baseProfile="tiny" id="Layer_1" version="1.2" viewBox="0 0 512 512" x="0px" xmlns="http://www.w3.org/2000/svg" y="0px"><g _ngcontent-serverApp-c8="" id="S"><path _ngcontent-serverApp-c8="" d="M316.5,37c25.9,5.1,51.8,10.1,77.7,15.2c1.4,0.3,2.9,0.6,4.3,0.8c3.2,0.4,4.8,1.3,1.7,4.2   c-1.9,1.8-3.7,3.8-5.5,5.8c-8,8.4-16.3,16.6-24,25.3c-3.7,4.2-7.3,5.2-12.8,4.1c-40.2-8.1-80.5-15.9-120.8-23.7   c-3.3-0.7-6.7-1.2-10.1-1.4c-12.4-0.7-22.1,6.6-24.4,18.2c-2.3,11.5,4.1,22.2,15.6,26.1c2.5,0.9,5.2,1.3,7.8,1.8   c30.4,6,60.9,11.7,91.3,17.9c29.2,5.9,51.1,29.5,55,58.5c5.7,42.7-28.9,79.6-72.6,77.5c-5.3-0.3-10.7-0.9-16-1.9   c-41-7.9-82-15.9-123-24.1c-4.8-1-8.1-0.3-11.5,3.5c-10.1,11.1-20.6,21.9-30.9,32.7c-0.6,0.7-1.5,1.2-2.2,1.8   c-0.2-1-0.7-2.2-0.5-3.1c5.5-27.4,11-54.7,16.5-82.1c0.7-3.7,2.4-5,6-4c1.9,0.5,3.8,0.8,5.8,1.1c49.4,9.6,98.8,19.3,148.2,28.9   c3.8,0.7,7.8,1.3,11.6,1.2c10.6-0.3,19.7-8.2,21.7-18.3c2-10.3-3.4-20.6-13.2-24.8c-3.3-1.4-6.9-2.4-10.5-3.1   c-30.7-6.1-61.4-11.8-92-18.2c-23.1-4.8-39.4-18.6-48.9-39.7c-20.8-46.3,15.1-98.2,66.5-96.5c4.9,0.2,9.7,0.7,14.5,1.6   C266.6,27.2,291.5,32.1,316.5,37z" fill="#ED1C24"></path><path _ngcontent-serverApp-c8="" d="M306.1,24.3c24.8,4.9,49.6,9.8,74.4,14.8c1.4,0.3,2.7,0.6,4.1,0.8c3,0.4,4.6,1.3,1.6,4.1   c-1.9,1.8-3.5,3.7-5.3,5.6c-7.7,8.2-15.6,16.2-23,24.7c-3.5,4.1-7,5-12.2,4c-38.5-7.9-77.1-15.5-115.7-23.1   c-3.2-0.6-6.5-1.2-9.7-1.4c-11.9-0.7-21.1,6.4-23.4,17.7c-2.2,11.2,3.9,21.6,14.9,25.4c2.4,0.8,5,1.3,7.5,1.8   c29.2,5.8,58.4,11.4,87.5,17.5c28,5.8,49,28.7,52.7,57c5.5,41.6-27.6,77.6-69.5,75.5c-5.1-0.3-10.3-0.9-15.3-1.9   c-39.3-7.7-78.6-15.5-117.8-23.4c-4.6-0.9-7.7-0.3-11,3.4c-9.6,10.8-19.7,21.3-29.6,31.9c-0.6,0.7-1.4,1.1-2.1,1.7   c-0.2-1-0.7-2.1-0.5-3.1c5.2-26.7,10.6-53.3,15.8-79.9c0.7-3.6,2.3-4.8,5.8-3.9c1.8,0.5,3.7,0.7,5.5,1.1   c47.3,9.4,94.6,18.8,142,28.1c3.6,0.7,7.4,1.3,11.1,1.1c10.1-0.3,18.9-8,20.8-17.8c1.9-10-3.3-20.1-12.7-24.2   c-3.2-1.4-6.6-2.3-10.1-3c-29.4-5.9-58.8-11.5-88.2-17.7c-22.2-4.7-37.8-18.1-46.9-38.7c-19.9-45.1,14.4-95.7,63.7-94   c4.7,0.2,9.3,0.7,13.9,1.6C258.3,14.8,282.2,19.6,306.1,24.3z" fill="#F15A24"></path></g><g _ngcontent-serverApp-c8="" id="game"><path _ngcontent-serverApp-c8="" d="M64.2,257.1l-6.7-8.5c6.9-5.4,13.6-10.7,20.2-16c8.6-6.7,8.6-6.7,0.5-15.9c-7.6,6-15.4,12.1-23.1,18.2   c-10.9,8.6-16.3,8-24.8-2.8c-5.3-6.7-10.7-13.4-15.9-20.2c-5.1-6.8-4.4-13.7,2.2-19.1c8-6.6,16.2-13,24.4-19.3   c6.7-5.1,13.8-4.4,19.1,2.2c11,13.7,21.9,27.5,32.7,41.4c4.9,6.3,4.5,13.4-1.2,18.1C82.8,242.7,73.7,249.6,64.2,257.1z M57.4,219.3   c3.5-2.8,7-5.7,10.6-8.3c3.6-2.6,2.8-5-1.5-9c-4.7-4.4-8.9-9.5-12-15.1c-2.9-5.3-5.1-6.3-8.4-3.5c-3.8,3.2-7.8,6.2-11.7,9.2   C21.3,203,21.3,203,31.8,216.3C43.1,230.6,43.1,230.6,57.4,219.3z" fill="#E6E6E6"></path><path _ngcontent-serverApp-c8="" d="M183.7,133.2l-8.6,6.8c-7.6-9.7-15.3-19.4-22.9-29c-5.4-6.9-5.4-6.9-12.3-1.4   c-13.3,10.4-13.3,10.4-2.7,23.8c5.8,7.4,11.7,14.8,17.8,22.5l-8.3,6.5l-34.8-44.1c1.4-1.2,2.7-2.6,4.2-3.8   c16.6-13.2,33.3-26.3,50-39.4c8.7-6.9,15.1-6.2,22,2.4c8.4,10.6,16.7,21.2,25.4,32.2l-8.6,6.8c-8-10.1-16.1-20-23.7-30.3   c-3.3-4.5-5.9-5.2-10.1-1.2c-4.5,4.3-13.1,7.9-13.4,12.3c-0.4,5,6.3,10.6,10.1,15.8C172.8,119.7,178.2,126.3,183.7,133.2z" fill="#E6E6E6"></path><path _ngcontent-serverApp-c8="" d="M74.7,176.3l35.7-28.2c-1.1-1.6-2-2.8-2.8-4.1c-2.8-4.8-5.6-5.2-10-1.4c-9.8,8.2-20,16-30.3,24.1l-6.8-8.6   c3.9-3.1,7.9-6.2,11.8-9.3c7.3-5.7,14.5-11.5,21.8-17.1c6.8-5.2,13.7-4.6,19,1.9c8.9,11,17.6,22.2,27.1,34.2   c-5.2,4.1-10.3,8.1-15.3,12.1c-6.2,4.9-12.3,9.9-18.6,14.6c-6.8,5.2-13.6,4.5-19-2c-3.5-4.1-6.7-8.5-10.1-12.7   C76.5,179,75.9,178,74.7,176.3z M90,178.5c1.9,2.5,3.2,4.7,5.1,6.2c1.1,0.9,3.6,1.7,4.4,1.1c8.6-6.4,16.9-13.1,25.1-19.6l-7.3-9.3   L90,178.5z" fill="#E6E6E6"></path><path _ngcontent-serverApp-c8="" d="M259.8,59.6l6.7,8.5c-12.1,9.5-23.7,19-35.8,28.1c-5.1,3.8-12,2.4-16.4-2.8c-6.8-8.2-13.3-16.5-19.7-25   c-4.4-5.9-3.6-12.8,2-17.5c8.2-6.8,16.5-13.3,25-19.7c5.8-4.4,12.6-3.4,17.6,2c0.6,0.7,1.1,1.4,1.7,2.1c3.6,4.6,7.3,9.2,11.4,14.4   l-35.8,28.2c1.5,2.2,2.7,3.7,3.6,5.4c2.5,4.2,5,3.9,8.6,1C238.8,75.9,249.2,68,259.8,59.6z M209.3,69.5l27.4-21.6   c-0.9-1.3-1.6-2.1-2.1-3.1c-3-5.1-6-6.2-10.9-1.7c-5.4,5-11.4,9.4-17.4,13.8c-3.2,2.4-4,4.6-1,7.6   C206.7,65.9,207.8,67.6,209.3,69.5z" fill="#E6E6E6"></path></g><g _ngcontent-serverApp-c8="" id="YPT"><path _ngcontent-serverApp-c8="" d="M344.4,217.6c2.6-3.4,4.9-6.3,7.2-9.2c0.9-1.2,1.6-2.6,2.6-3.8c0.5-0.6,1.4-1.1,2.1-1.1   c7.6-0.1,15.3,0,22.9,0c0.4,0,0.9,0.3,1.6,0.5c-0.3,0.8-0.5,1.5-0.9,2.1c-4.9,6.5-9.8,13-14.7,19.6c-4.2,5.7-8.6,11.3-12.5,17.2   c-1.3,2-1.6,4.8-2,7.4c-0.6,3.2-0.8,6.5-1.4,9.7c-0.1,0.7-1,1.7-1.6,1.7c-7.3,0.1-14.6,0.1-22.4,0.1c1-5.6,2-10.7,2.8-15.8   c0.2-1.1,0.3-2.4-0.1-3.4c-1.7-4.4-3.6-8.7-5.3-13.1c-2.5-6.2-4.8-12.5-7.2-18.8c-0.6-1.4-1.4-2.8-1.9-4.2c-0.8-2-0.2-3,2-3   c7.1-0.1,14.1,0,21.2,0c1.6,0,2.6,0.7,3.1,2.1C341.4,209.2,342.8,213,344.4,217.6z M317.3,206c1.6,3.8,3,6.9,4.2,10.2   c2.6,6.6,5.1,13.3,7.7,19.8c1.5,3.6,3.3,6.9,1.9,11.2c-1.2,3.7-1.3,7.7-2,11.9c5.1,0,10.1,0.1,15.1-0.1c0.6,0,1.4-0.9,1.6-1.6   c0.9-3.7,1.8-7.4,2.2-11.2c0.3-2.5,1.2-4.6,2.8-6.5c2.9-3.7,5.8-7.4,8.6-11.2c3.2-4.2,6.3-8.5,9.4-12.7c2.3-3.1,4.5-6.2,6.8-9.3   c-0.5-0.2-0.8-0.4-1-0.4c-5.4,0-10.8-0.1-16.2,0c-0.7,0-1.7,0.8-2.2,1.4c-4.1,5.4-8.1,10.9-12.3,16.7c-0.7-1-1.3-1.6-1.7-2.5   c-1.6-4.1-3.1-8.3-4.7-12.4c-0.5-1.3-0.7-3.3-2.7-3.3C329.2,206,323.5,206,317.3,206z" display="none"></path><path _ngcontent-serverApp-c8="" d="M475.2,203.4c9,0,18,0,27,0c0.8,0,1.6,0,2.3,0.1c1.1,0.1,1.6,0.7,1.4,2c-0.7,3.9-1.3,7.9-2,11.8   c-0.3,1.7-0.6,3.4-1.3,5c-0.3,0.7-1.7,1.1-2.6,1.1c-4.5,0.1-9.1,0-13.6,0.1c-3.1,0-2.9,0.1-3.3,3.2c-0.4,3.7-1.3,7.3-2,11   c-0.5,2.7-1,5.5-1.4,8.2c-0.8,4.8-1.6,9.6-2.5,14.4c-0.1,0.6-1.4,1.4-2.1,1.4c-6.4,0.1-12.8,0.1-19.1,0.1c-1.3,0-2-0.6-1.9-1.9   c0.1-1.2,0.3-2.5,0.5-3.7c0.2-1,0.4-2,0.6-3.1c0.7-3.5,1.3-6.9,2-10.4c0.4-2.3,0.8-4.7,1.2-7.1c0.5-3,1.1-6,1.4-9.1   c0.3-2.8-0.1-3-2.8-3c-4.2,0-8.3,0-12.5,0c-3.3,0-3.7-0.6-2.6-3.8c0.2-0.5,0.3-0.9,0.4-1.4c0.4-3.5,0.9-7,1.3-10.5   c0.4-3.4,1.4-4.3,4.8-4.3C457.2,203.4,466.2,203.4,475.2,203.4z M502.4,206.2c-1.3-0.1-2.4-0.2-3.5-0.2c-15.9,0-31.9,0-47.8,0   c-0.8,0-1.6-0.1-2.3,0.1c-0.6,0.1-1.4,0.6-1.5,1c-0.5,2.2-0.9,4.5-1.3,6.7c-0.2,1.2-0.3,2.5-0.7,3.6c-0.9,2.7-0.5,3.2,2.4,3.3   c4.2,0,8.3,0,12.5,0c3.2,0,3.5,0.4,3.2,3.6c-0.2,1.8-0.8,3.5-1.1,5.3c-0.5,3.3-0.9,6.6-1.4,9.9c-0.6,3.9-1.4,7.7-2.1,11.5   c-0.1,0.7-0.4,1.5-0.5,2.2c-0.2,1.2-0.4,2.4-0.6,3.7c-0.1,1.3,0.4,2,1.8,2c4.3,0,8.5,0.1,12.7-0.1c0.9,0,2.2-1.1,2.4-1.9   c0.7-2.8,1-5.6,1.4-8.5c0.5-3,0.8-6.1,1.4-9.1c1-5.1,2.2-10.3,3.2-15.4c0.6-3.3,0.6-3.3,4-3.3c4.4,0,8.9,0,13.3,0   c1.2,0,2.3,0,2.5-1.7C500.8,215,501.6,210.8,502.4,206.2z" display="none"></path><path _ngcontent-serverApp-c8="" d="M410.4,244.3c-3.2,0-6.4,0-9.6,0c-1.6,0-2.4,0.4-2.6,2.2c-0.6,4.4-1.5,8.8-2.3,13.3   c-0.2,1.3-0.9,1.9-2.1,1.9c-6.5,0-13,0-19.4,0c-1.2,0-1.9-0.6-1.8-1.8c0.1-1.3,0.3-2.7,0.5-4c0.1-0.6,0.4-1.1,0.5-1.6   c0.5-3.5,0.8-7,1.4-10.5c0.5-3.3,1.5-6.5,2-9.8c0.6-3.3,0.9-6.6,1.4-9.9c0.5-3,1.2-6,1.8-9c0.2-0.8,0.3-1.7,0.5-2.5   c0.4-2.5,0.7-5.1,1.4-7.6c0.2-0.6,1.3-1.3,2.1-1.4c1.8-0.2,3.7-0.1,5.5-0.1c11.9,0,23.8,0,35.7,0c5,0,8.6,2.7,11.5,6.5   c5.5,7.1,4.3,14.6,0.6,21.7c-1.9,3.6-5.6,6.3-8.8,9C423.3,245.2,416.7,244.3,410.4,244.3z M375.7,259.1c5,0,9.8,0,14.7,0   c1.1,0,1.8-0.4,2-1.6c0.7-4.1,1.7-8.2,2.2-12.4c0.4-3.1,0.4-3.4,3.7-3.4c5.1,0,10.3,0.3,15.4-0.1c3.9-0.3,7.9-0.5,11.3-2.8   c2.1-1.4,4.2-3.1,6-4.9c4.3-4.1,6.4-9,5.6-15.2c-0.6-5.1-3.3-8.5-7.5-10.5c-2.9-1.4-6.4-2-9.7-2.1c-6.1-0.3-12.2-0.1-18.3-0.1   c-4.7,0-9.5,0-14.2,0c-1,0-2.2-0.2-2.5,1.3c-0.4,2.1-0.9,4.1-1.2,6.2c-0.9,5.5-1.6,11-2.5,16.4c-0.4,2.5-0.8,5.1-1.3,7.6   c-0.6,3.3-1.4,6.5-2,9.8C376.8,251.1,376.3,254.9,375.7,259.1z" display="none"></path><path _ngcontent-serverApp-c8="" d="M317.3,206c6.2,0,12-0.1,17.7,0c2,0,2.1,2,2.7,3.3c1.6,4.1,3.1,8.3,4.7,12.4c0.3,0.8,1,1.5,1.7,2.5   c4.3-5.8,8.2-11.3,12.3-16.7c0.5-0.7,1.4-1.4,2.2-1.4c5.4-0.1,10.8-0.1,16.2,0c0.3,0,0.5,0.2,1,0.4c-2.3,3.2-4.5,6.3-6.8,9.3   c-3.1,4.2-6.3,8.5-9.4,12.7c-2.8,3.8-5.7,7.5-8.6,11.2c-1.5,1.9-2.5,4-2.8,6.5c-0.5,3.8-1.4,7.5-2.2,11.2c-0.1,0.6-1,1.6-1.6,1.6   c-5,0.1-10,0.1-15.1,0.1c0.6-4.2,0.8-8.2,2-11.9c1.4-4.3-0.5-7.6-1.9-11.2c-2.7-6.6-5.1-13.2-7.7-19.8   C320.2,213,318.8,209.8,317.3,206z" fill="#B3B3B3"></path><path _ngcontent-serverApp-c8="" d="M502.4,206.2c-0.8,4.7-1.5,8.8-2.1,12.9c-0.2,1.7-1.3,1.7-2.5,1.7c-4.4,0-8.9,0-13.3,0c-3.4,0-3.4,0-4,3.3   c-1,5.1-2.2,10.3-3.2,15.4c-0.6,3-0.9,6-1.4,9.1c-0.4,2.8-0.7,5.7-1.4,8.5c-0.2,0.8-1.6,1.9-2.4,1.9c-4.2,0.2-8.5,0.1-12.7,0.1   c-1.4,0-1.9-0.8-1.8-2c0.1-1.2,0.3-2.5,0.6-3.7c0.1-0.8,0.4-1.5,0.5-2.2c0.7-3.8,1.5-7.7,2.1-11.5c0.5-3.3,0.9-6.6,1.4-9.9   c0.3-1.8,0.9-3.5,1.1-5.3c0.3-3.2,0-3.5-3.2-3.6c-4.2,0-8.3,0-12.5,0c-2.9,0-3.3-0.6-2.4-3.3c0.4-1.2,0.5-2.4,0.7-3.6   c0.4-2.3,0.8-4.5,1.3-6.7c0.1-0.5,0.9-0.9,1.5-1c0.7-0.2,1.5-0.1,2.3-0.1c15.9,0,31.9,0,47.8,0C500,206,501.1,206.1,502.4,206.2z" fill="#B3B3B3"></path><path _ngcontent-serverApp-c8="" d="M375.7,259.1c0.6-4.2,1.1-7.9,1.8-11.7c0.6-3.3,1.3-6.5,2-9.8c0.5-2.5,0.9-5.1,1.3-7.6   c0.9-5.5,1.6-11,2.5-16.4c0.3-2.1,0.8-4.1,1.2-6.2c0.3-1.5,1.5-1.3,2.5-1.3c4.7,0,9.5,0,14.2,0c6.1,0,12.2-0.2,18.3,0.1   c3.3,0.2,6.8,0.7,9.7,2.1c4.2,2,6.9,5.4,7.5,10.5c0.7,6.2-1.3,11.1-5.6,15.2c-1.9,1.8-3.9,3.4-6,4.9c-3.4,2.2-7.5,2.5-11.3,2.8   c-5.1,0.4-10.2,0.1-15.4,0.1c-3.2,0-3.3,0.3-3.7,3.4c-0.5,4.2-1.5,8.3-2.2,12.4c-0.2,1.2-0.9,1.6-2,1.6   C385.5,259.1,380.7,259.1,375.7,259.1z M408.6,218.5C408.6,218.5,408.6,218.5,408.6,218.5c-2.2,0-4.4-0.1-6.7,0   c-2.7,0.1-3.5,0.9-3.8,3.7c-0.2,1.6-0.3,3.3-0.7,4.8c-0.8,2.6-0.4,3.4,2.4,3.4c4,0.1,7.9,0,11.9,0c5.1,0,8-3.2,7.5-8.3   c-0.2-2.4-1.3-3.5-3.7-3.6C413.2,218.4,410.9,218.5,408.6,218.5z" fill="#B3B3B3"></path><path _ngcontent-serverApp-c8="" d="M408.6,218.5c2.3,0,4.6-0.1,6.9,0c2.4,0.1,3.5,1.2,3.7,3.6c0.5,5-2.4,8.2-7.5,8.3c-4,0-7.9,0-11.9,0   c-2.7,0-3.1-0.8-2.4-3.4c0.4-1.5,0.5-3.2,0.7-4.8c0.3-2.8,1.1-3.6,3.8-3.7C404.2,218.4,406.4,218.5,408.6,218.5   C408.6,218.5,408.6,218.5,408.6,218.5z M416.4,223.2c-1.2-0.7-2.4-1.9-3.7-2c-3-0.3-6-0.1-8.9-0.1c-1.1,0-1.8,0.4-2,1.6   c-0.1,0.8-0.6,1.6-0.9,2.4c-0.5,1.8,0,2.6,1.8,2.6c2.7,0.1,5.4,0.1,8.1,0C413.9,227.7,415.1,226.8,416.4,223.2z" display="none"></path></g><g _ngcontent-serverApp-c8="" id="C"><path _ngcontent-serverApp-c8="" d="M239.8,210.2c0,4.5,0,8.9,0,13.4c0,0.4-0.2,0.8-0.4,1.2c-5.2,8.3-10.4,16.6-16,25.5c0-8.3,0-15.9,0-23.8   c-1.2-0.1-2.1-0.1-3-0.1c-12.5,0-25,0-37.5,0c-6.7,0-10,3.2-10,9.7c0,9.6,0,19.2,0,28.8c0,6.5,3.1,9.5,9.8,9.5c9.7,0,19.3,0,29,0   c7.8,0,9.3-1,11.8-8.1c5.4,0,10.7,0,16.4,0c-0.2,8.9-4,15.7-11.4,20.6c-4.2,2.8-9,4-14.1,4c-10.9,0-21.7,0-32.6,0   c-13.5-0.1-24.3-8.8-25.3-21.9c-0.9-12.6-0.7-25.4,0.2-38c0.8-11.4,11.6-20.6,23.2-20.7c19.6-0.2,39.2-0.1,58.7-0.1   C238.9,210,239.3,210.1,239.8,210.2z" display="none"></path><path _ngcontent-serverApp-c8="" d="M231.8,216c0,3.7,0,7.3,0,11c0,0.3-0.2,0.7-0.3,1c-4.2,6.8-8.3,13.6-12.8,21c0-6.9,0-13.1,0-19.6   c-0.9,0-1.7-0.1-2.4-0.1c-10,0-20,0-30,0c-5.4,0-8,2.6-8,8c0,7.9,0,15.8,0,23.7c0,5.3,2.5,7.8,7.8,7.8c7.7,0,15.5,0,23.2,0   c6.3,0,7.5-0.8,9.4-6.7c4.3,0,8.6,0,13.1,0c-0.2,7.4-3.2,13-9.1,17c-3.4,2.3-7.2,3.3-11.3,3.3c-8.7,0-17.4,0-26.1,0   c-10.8,0-19.5-7.2-20.2-18.1c-0.7-10.4-0.6-20.9,0.1-31.3c0.6-9.4,9.3-16.9,18.6-17c15.7-0.2,31.4-0.1,47.1-0.1   C231,215.9,231.3,216,231.8,216z" display="none"></path><path _ngcontent-serverApp-c8="" d="M218.8,248.4c0-7.3,0-14.3,0-21.5c-1.1,0-1.9-0.1-2.7-0.1c-11.2,0-22.4,0-33.5,0c-6.3,0-9.1,2.9-9.1,9.2   c0,8.7,0,17.3,0,26c0,6.1,2.8,8.9,8.9,8.9c8.9,0,17.9,0,26.8,0c6.2,0,8-1.4,9.7-7.4c4.9,0,9.8,0,14.6,0c0.8,9.9-7.5,20.2-17.8,22.1   c-1.7,0.3-3.4,0.5-5,0.5c-9.7,0-19.4,0-29.1,0c-12.3,0-22.1-8.1-22.9-20.3c-0.8-11.6-0.6-23.4,0.2-35c0.7-10.2,10.3-18.7,20.5-18.9   c17.9-0.3,35.8-0.1,53.6-0.1c0.1,0,0.3,0.1,0.7,0.2c0,4.1,0,8.3,0,12.6c0,0.3-0.3,0.7-0.5,1c-4.5,7.4-9.1,14.7-13.6,22.1   C219.4,247.8,219.2,248,218.8,248.4z" fill="#B3B3B3"></path></g><g _ngcontent-serverApp-c8="" id="R"><path _ngcontent-serverApp-c8="" d="M242,235.4c1.1,0,2,0,3,0c16.7,0,33.4,0,50.1,0c1.3,0,2.7-0.1,4-0.4c3.3-0.8,5.5-3.8,5.2-6.9   c-0.3-3.1-3-5.7-6.4-6.1c-1-0.1-2.1-0.1-3.1-0.1c-11.4,0-22.9,0-34.3,0c-0.9,0-1.7,0-2.9,0c0,2.7,0,5.2,0,7.8   c-0.2,0.1-0.4,0.1-0.6,0.2c-5-7.2-9.9-14.4-15.1-21.9c0.9,0,1.5-0.1,2-0.1c17.5,0,35-0.1,52.4,0c12.1,0,21.5,7.4,23.3,18.1   c2,11.3-8,22.7-20.6,23.5c-1.8,0.1-3.6,0-6,0c9.8,14.3,19.3,28.2,29.1,42.4c-3.5,0-6.7,0-9.8,0c-2.8,0-6.2,0.7-8.4-0.4   c-2.1-1.1-3.2-4-4.6-6.1c-7.8-11.3-15.6-22.6-23.4-33.9c-1-1.4-2-1.9-3.8-1.9c-4.8,0.1-9.7,0-14.7,0c0,9.2,0,18.2,0,27.4   c-5.3,0-10.4,0-15.6,0C242,263.2,242,249.5,242,235.4z" display="none"></path><path _ngcontent-serverApp-c8="" d="M242,238.5c1,0,1.8,0,2.6,0c14.5,0,29,0,43.5,0c1.2,0,2.4-0.1,3.5-0.4c2.9-0.8,4.8-3.6,4.5-6.5   c-0.3-3-2.6-5.4-5.5-5.8c-0.9-0.1-1.8-0.1-2.7-0.1c-9.9,0-19.9,0-29.8,0c-0.8,0-1.5,0-2.5,0c0,2.5,0,5,0,7.4   c-0.2,0.1-0.3,0.1-0.5,0.2c-4.3-6.8-8.6-13.6-13.1-20.8c0.8,0,1.3-0.1,1.7-0.1c15.2,0,30.4,0,45.6,0c10.6,0,18.7,7,20.3,17.1   c1.7,10.7-7,21.5-17.9,22.2c-1.6,0.1-3.1,0-5.2,0c8.6,13.6,16.8,26.7,25.3,40.2c-3.1,0-5.8,0-8.5,0c-2.5,0-5.4,0.7-7.3-0.4   c-1.9-1-2.7-3.8-4-5.8c-6.8-10.7-13.6-21.4-20.3-32.1c-0.8-1.3-1.7-1.8-3.3-1.8c-4.2,0.1-8.4,0-12.8,0c0,8.7,0,17.2,0,25.9   c-4.6,0-9,0-13.6,0C242,264.7,242,251.8,242,238.5z" display="none"></path><path _ngcontent-serverApp-c8="" d="M260.4,249.2c0,8.6,0,17,0,25.4c-4.3,0-8.5,0-12.8,0c0-12.8,0-25.5,0-38.4c0.9,0,1.6,0,2.4,0   c13.8,0,27.6,0,41.4,0c1.1,0,2.3-0.1,3.3-0.3c2.8-0.7,4.6-3.5,4.4-6.4c-0.2-2.9-2.4-5.3-5.2-5.7c-0.2,0-0.4-0.1-0.6-0.1   c-10.9,0-21.7,0-32.8,0c0,2.4,0,4.8,0,7.1c-0.2,0.1-0.3,0.1-0.5,0.2c-4.1-6.7-8.2-13.3-12.4-20.2c0.6-0.1,1-0.2,1.4-0.2   c14.6,0,29.2-0.1,43.8,0c9.9,0.1,17.6,6.9,19.2,16.7c1.6,10.5-6.6,21-17,21.7c-1.5,0.1-3,0-5,0c8.1,13.2,16,26,24.1,39.3   c-1.8,0-3.2,0-4.7,0c-2.9,0-5.8-0.1-8.7,0c-1.4,0.1-2.1-0.5-2.8-1.6c-7.3-12-14.7-23.9-22-35.8c-0.8-1.3-1.6-1.8-3.1-1.8   C268.7,249.3,264.7,249.2,260.4,249.2z" fill="#B3B3B3"></path></g></svg>