<svg width="160" height="114" viewBox="0 0 160 114" fill="none" xmlns="http://www.w3.org/2000/svg">
<circle cx="57" cy="57" r="57" fill="#333865"/>
<path d="M25.837 27.0088L22.0533 34.5071L13.5877 35.7134C12.0696 35.9286 11.4611 37.7579 12.5621 38.8056L18.6867 44.6388L17.2381 52.879C16.9774 54.3685 18.5824 55.4842 19.9267 54.7876L27.5 50.8969L35.0733 54.7876C36.4176 55.4785 38.0226 54.3685 37.7619 52.879L36.3133 44.6388L42.4379 38.8056C43.5389 37.7579 42.9304 35.9286 41.4123 35.7134L32.9467 34.5071L29.163 27.0088C28.485 25.6722 26.5207 25.6553 25.837 27.0088Z" fill="#5B6297" fill-opacity="0.59"/>
<path d="M83.837 27.0088L80.0533 34.5071L71.5877 35.7134C70.0696 35.9286 69.4611 37.7579 70.5621 38.8056L76.6867 44.6388L75.2381 52.879C74.9774 54.3685 76.5824 55.4842 77.9267 54.7876L85.5 50.8969L93.0733 54.7876C94.4176 55.4785 96.0226 54.3685 95.7619 52.879L94.3133 44.6388L100.438 38.8056C101.539 37.7579 100.93 35.9286 99.4123 35.7134L90.9467 34.5071L87.163 27.0088C86.485 25.6722 84.5207 25.6553 83.837 27.0088Z" fill="#5B6297" fill-opacity="0.59"/>
<path d="M54.1933 10.3914L48.9449 20.7339L37.2023 22.3978C35.0965 22.6946 34.2526 25.2177 35.7797 26.6629L44.2752 34.7087L42.2658 46.0745C41.9041 48.129 44.1305 49.6678 45.9952 48.707L56.5 43.3405L67.0048 48.707C68.8695 49.66 71.0959 48.129 70.7342 46.0745L68.7248 34.7087L77.2203 26.6629C78.7474 25.2177 77.9035 22.6946 75.7977 22.3978L64.0551 20.7339L58.8067 10.3914C57.8664 8.54792 55.1417 8.52449 54.1933 10.3914Z" fill="#5B6297"/>
<rect x="12" y="57" width="148" height="45" rx="22.5" fill="#333865"/>
</svg>
