<?xml version="1.0" encoding="utf-8"?>
<!-- Generator: Adobe Illustrator 23.0.3, SVG Export Plug-In . SVG Version: 6.00 Build 0)  -->
<svg version="1.1" id="Layer_1" xmlns="http://www.w3.org/2000/svg" xmlns:xlink="http://www.w3.org/1999/xlink" x="0px" y="0px"
	 viewBox="0 0 512 512" style="enable-background:new 0 0 512 512;" xml:space="preserve">
<style type="text/css">
	.st0{fill:#FFFFFF;}
</style>
<g>
	<path class="st0" d="M393.2,153.5c2-3.8,3.9-7.5,5.8-11.1c0.2-0.5,0.4-0.9,0.8-1.3c2.7-3.1,2.5-3.8-0.1-7c-1.6-2.1-2.8-4.7-3.7-7.2
		c-2-5.4-2.8-11.1-2.1-16.8c0.3-3.2,1.1-6.3,1.9-9.4c0.9-3.3,1.7-6.8,3.3-9.8c2.5-4.7,5.3-9.4,10.3-11.8c2.6-1.2,5.4-2.3,8.2-2.5
		c5.1-0.4,10.4-0.8,15.2,2c1.6,0.9,3.1,1.9,4.8,2.5c0.7,0.3,2.2,0.1,2.6-0.4c4.1-4.7,9.6-6.1,15.4-5.2c5.1,0.8,10.1,2.5,13.4,7.3
		c0.6-0.5,1.3-0.8,1.5-1.3c2.2-4.6,6-5.9,10.9-6.3c5.6-0.5,10.2,1.7,13.9,5.1c3.6,3.3,6.8,7.2,7.2,12.8c0.3,5,1.8,9.9,1.9,14.9
		c0,4.3-1.2,8.7-1.9,13.1c-0.4,2.5-0.6,5-1.2,7.5c-0.9,3.6-1.2,7.3-3.4,10.6c-2.4,3.7-3.5,8.2-5.7,12c-2.3,3.9-4.2,8.2-7.7,11.3
		c-2.7,2.4-4.7,5.7-7.4,8.2c-4.4,4.2-9,8.3-13.7,12.1c-2.7,2.1-5.9,3.7-9,5.3c-4.7,2.5-9.4,5.1-14.2,7.3c-3.6,1.7-7.4,2.9-11.3,4.1
		c-1.4,0.5-1.6,0.7-1,2.2c2.5,6.1,4.7,12.2,7.1,18.4c1.1,2.9,2.3,5.8,3.4,8.7c0.6,1.5,1,3.1,1.3,4.7c0.5,2.7,0.7,5.5,1.2,8.3
		c0.6,3.7,1.3,7.3,2,11c0.1,0.4,0.1,0.9,0.1,1.3c0.4,5.6,0.1,11.2,0.8,16.9c0.9,6.7-0.3,13.7-0.9,20.6c-0.4,4.7-1.2,9.3-2.1,13.9
		c-0.9,4.5-1.9,9-3.3,13.3c-1.6,4.8-3.7,9.5-5.6,14.3c-2.1,5.1-4,10.4-6.6,15.3c-2.7,5.2-6.1,10.1-9.4,15c-2.9,4.4-5.9,8.7-9.2,12.9
		c-2.5,3.1-5.4,6-8.2,8.8c-4.2,4.1-8.3,8.3-12.7,12.2c-3.5,3.1-7.4,5.8-11.2,8.7c-1.9,1.5-3.6,3.1-5.6,4.4c-4.3,2.8-8.6,5.7-13,8.2
		c-4.5,2.6-9,5.1-13.7,7.2c-5.5,2.4-11.1,4.5-16.8,6.4c-4.1,1.4-8.4,2.3-12.5,3.4c-3.9,1-7.9,2.2-11.8,3c-3.3,0.7-6.8,0.8-10.2,1.3
		c-14,2.1-28,0.7-42,0.9c-3.9,0.1-7.8-1.2-11.8-1.9c-2.4-0.4-4.8-0.9-7.2-1.2c-7.1-0.8-13.8-3.2-20.6-5.2
		c-10.3-3-19.8-7.8-29.3-12.6c-4.3-2.2-8.4-5-12.5-7.6c-7-4.5-13.9-9.3-19.8-15.3c-2.3-2.4-5.4-4-7.7-6.3c-5-5.2-9.8-10.6-14.5-16.1
		c-2.4-2.8-4.2-6.2-6.3-9.3c-2.3-3.3-4.9-6.5-7.1-10c-2.2-3.7-4-7.6-6-11.4c-3.6-6.7-6.3-13.7-8.2-21.1c-1.1-4.3-2.1-8.5-3.2-12.8
		c-1-4.1-2.9-8-2.7-12.5c0.1-3.1-0.3-6.3-1-9.3c-2.2-9-0.7-18-0.9-27c-0.1-4.7,1.3-9.4,2-14.2c0.1-0.8-0.1-1.6,0.1-2.4
		c0.3-1.1,0.7-2.2,1.1-3.2c0.1-0.3,0.4-0.6,0.4-1c0.6-6.2,2.4-12.1,4.1-18.2c1.7-6.1,3.8-12,6.5-17.7c2.6-5.4,5.3-10.8,8.3-16
		c2-3.4,4.5-6.5,6.8-9.8c2.6-3.6,5.2-7.2,7.7-10.9c0.2-0.2,0.3-0.4,0.5-0.6c7.5-7.5,14.8-15.2,22.6-22.4c4-3.7,8.9-6.4,13.3-9.8
		c8-6.3,16.9-10.9,26-15.1c5.9-2.7,12.1-4.9,18.2-7.1c5.3-1.9,10.7-3.5,16.1-5.2c2-0.6,4.1-0.9,6.1-1.2c2.9-0.4,5.9-0.9,8.8-1.2
		c4.5-0.4,9.2-0.2,13.6-1.2c8.4-1.9,16.8-0.5,25.2-0.8c4.2-0.1,8.4,0.3,12.6,1.1c6.7,1.2,13.4,2.6,20.1,4.1
		c5.8,1.3,11.6,2.9,17.4,4.4c2,0.5,3.9,1.4,5.8,2.2c4.9,2.1,9.9,4,14.5,6.5c7,3.7,14,7.6,20.5,12c5.4,3.7,10.3,8.3,15.4,12.5
		C387.2,148.7,390.2,151.1,393.2,153.5z M312.7,232.7c-1.9,1.6-3.5,3.6-5.6,4.6c-5.4,2.7-10.9,5.1-16.4,7.5
		c-2.9,1.2-5.8,2.3-8.8,3.2c-3.1,0.9-6.4,1.2-9.3,2.3c-6.2,2.3-12.5,3.1-19,3.1c-1.6,0-3.2,0.5-4.8,0.8c-0.3,0-0.5,0.1-0.8,0.1
		c-3.6-0.3-7.1-0.9-10.7-0.9c-6.8-0.1-13.4-0.6-19.4-4.4c-2.6-1.7-5.4-3.1-7.9-5c-3.6-2.7-5-6.7-5.2-11c-0.1-3.8,0.1-7.7-0.1-11.5
		c-0.1-1.1-0.7-2.6-1.5-3.1c-3-1.7-6.3-3-9.4-4.5c-0.1,0.3-0.2,0.4-0.2,0.6c-0.1,17.9,0.4,35.9-1.1,53.8c-0.1,1,0,2-0.3,2.9
		c-0.7,2.3-1.8,4.6-2.3,6.9c-0.6,3-1.1,6.1-1.1,9.1c0.1,6.9,0.6,13.7,1,20.6c0,0.2,0,0.4,0.1,0.5c1.5,2.9,2.9,5.9,4.6,8.8
		c4.2,7.1,10.6,11,18.8,11.1c5.5,0.1,11.2,0.9,16.7-0.9c3.4-1.1,7.1-1.2,10.3-2.6c7.9-3.6,15.8-7.3,22.4-13.1
		c8.5-7.4,16.7-15.2,22.8-24.8c1.1-1.7,2.6-3.1,3.7-4.7c2.1-3,4.1-6.1,6-9.2c0.4-0.7,0.3-1.8,0.7-2.5c2.2-3.6,4.9-7,6.8-10.8
		c1.4-2.9,3.8-5.2,4.2-8.9c0.2-2.5,2.3-4.9,3.6-7.2C312.3,240.1,313.7,236.6,312.7,232.7z M340.9,144.1c0,0.1,0,0.1,0,0.2
		c-3.5,0-7-0.2-10.4,0.1c-3.1,0.3-6.1,1.1-9.1,1.9c-3.6,0.9-7.3,1.6-10.8,2.9c-3.5,1.3-7,2.8-10.2,4.8c-2.4,1.4-4.3,3.6-6.3,5.6
		c-2.2,2.2-4.1,4.6-4.6,7.8c-0.1,0.8-1,2.1-0.8,2.2c1,0.8,1.9,1.7,3.7,0.8c4.8-2.5,9.7-4.8,14.8-6.6c4.6-1.6,9.4-2.6,14.1-3.5
		c5.1-0.9,10.3-1.6,15.5-2c2.1-0.2,4.3,0.7,6.5,1c2.8,0.4,5.8,0.4,8.5,1.3c5.5,1.8,10.9,4.1,16.3,6.3c2.4,1,3.4,0.4,3.2-2.2
		c-0.1-1.7-0.4-3.5-1.1-5c-1.4-3-2.5-6.8-4.9-8.4c-5.7-3.9-12.1-7.1-19.5-6.8C344.1,144.2,342.5,144.1,340.9,144.1z M197.7,149.5
		c4.9,0,9.7,0.1,14.5,1.9c7,2.6,13.1,6.3,18.8,11c1.3,1.1,2.3,2.5,3.6,3.5c1.1,0.9,2.6,1.4,3.2-0.4c0.4-1.4,0.5-3.2,0-4.5
		c-2-5.2-4-10.3-9-13.9c-7.2-5.1-14.6-8.6-23.5-8.4c-2.8,0.1-5.5,0-8.3,0c-7.1-0.1-12.1,3.7-16.4,8.8c-0.6,0.8-0.1,2.5-0.2,3.7
		c1-0.1,2-0.1,3-0.3c2.3-0.5,4.6-1.2,6.9-1.5C192.6,149.3,195.2,149.5,197.7,149.5z"/>
	<path class="st0" d="M32.8,76.1c-1.7-5-0.5-9.8,1.9-14.3c2.7-4.9,6.8-7.7,12.7-7.7c4.6,0,9.3,0,13.3,2.5
		c5.1,3.3,10.3,6.5,14.2,11.3c1,1.2,2.3,2.2,3.4,3.4c1.6,1.8,3.2,1.9,5.8,1.4c5.5-1.1,11.6-1.7,16.2,2.5c3.3,3,5.7,6.9,6.9,11.4
		c1.1,4.1,2.1,8.2,3.2,12.3c0,0.1,0,0.2,0.1,0.3c0.4,6.6,1.6,13.3,0.9,19.8c-0.7,6.3-1.6,12.9-5.1,18.7c-3.5,5.9-7.2,11.8-12.8,15.8
		c-4.1,3-8.8,5.1-13.6,7.1c-6.5,2.7-13,3-19.6,2.8c-5-0.1-9.9-1-14.5-3.2c-4.5-2.2-9.2-4-13.2-6.9c-4.2-3-7.6-7.3-11.5-10.7
		c-3.7-3.2-6.3-7-8.3-11.3c-1.5-3.1-2-6.6-2.9-9.9c-0.4-1.4-1.3-3-1-4.2c0.9-3.6,0.8-7.6,3.6-10.6c1.5-1.6,3.1-3,4.4-4.6
		c0.4-0.5,0.4-1.7,0.2-2.5c-2.2-9.8-1.1-16,7.9-20.6C27.2,77.7,30,77,32.8,76.1z"/>
</g>
</svg>
