<svg width="70" height="71" viewBox="0 0 70 71" fill="none" xmlns="http://www.w3.org/2000/svg">
<path d="M68.6966 24.3158L69.8011 18.0963C70.0041 16.9527 69.1298 15.9025 67.9746 15.9025H56.4072L58.6683 3.16937C58.8713 2.02576 57.9969 0.975586 56.8417 0.975586H50.559C50.1235 0.975594 49.7019 1.12967 49.3679 1.41085C49.034 1.69202 48.809 2.08236 48.7325 2.51352L46.3548 15.9025H31.1036L33.3646 3.16937C33.5678 2.02576 32.6934 0.975586 31.5381 0.975586H25.2554C24.8199 0.975594 24.3982 1.12967 24.0643 1.41085C23.7304 1.69202 23.5054 2.08236 23.4289 2.51352L21.0512 15.9025H8.82117C8.38562 15.9025 7.96397 16.0566 7.63003 16.3378C7.29609 16.6189 7.07115 17.0093 6.9946 17.4404L5.89013 23.66C5.68711 24.8036 6.5615 25.8538 7.71669 25.8538H19.284L15.7498 45.7563H3.51976C3.08422 45.7563 2.66256 45.9104 2.32862 46.1916C1.99468 46.4727 1.76974 46.8631 1.69319 47.2942L0.588722 53.5138C0.385701 54.6574 1.2601 55.7076 2.41528 55.7076H13.9826L11.7216 68.4407C11.5186 69.5843 12.393 70.6345 13.5481 70.6345H19.8308C20.2663 70.6345 20.688 70.4804 21.0219 70.1992C21.3559 69.918 21.5808 69.5277 21.6574 69.0965L24.0352 55.7076H39.2863L37.0252 68.4407C36.822 69.5843 37.6964 70.6345 38.8518 70.6345H45.1344C45.57 70.6345 45.9916 70.4804 46.3255 70.1992C46.6595 69.918 46.8844 69.5277 46.961 69.0965L49.3386 55.7076H61.5687C62.0042 55.7076 62.4259 55.5535 62.7598 55.2723C63.0938 54.9911 63.3187 54.6008 63.3952 54.1696L64.4997 47.9501C64.7027 46.8065 63.8283 45.7563 62.6732 45.7563H51.1058L54.64 25.8538H66.8701C67.3056 25.8538 67.7273 25.6997 68.0612 25.4185C68.3952 25.1373 68.6201 24.747 68.6966 24.3158ZM41.0534 45.7563H25.8023L29.3366 25.8538H44.5877L41.0534 45.7563Z" fill="#5B6297"/>
</svg>
