<svg width="88" height="70" viewBox="0 0 88 70" fill="none" xmlns="http://www.w3.org/2000/svg">
<path d="M72.0051 60.7817H15.5543C14.3601 60.7817 13.3831 61.7558 13.3831 62.9464V67.2759C13.3831 68.4665 14.3601 69.4406 15.5543 69.4406H72.0051C73.1993 69.4406 74.1763 68.4665 74.1763 67.2759V62.9464C74.1763 61.7558 73.1993 60.7817 72.0051 60.7817ZM80.6899 17.4872C77.0938 17.4872 74.1763 20.3961 74.1763 23.9814C74.1763 24.942 74.3934 25.8349 74.7734 26.6603L64.9488 32.5321C62.859 33.7768 60.1586 33.0732 58.9509 30.9626L47.8914 11.6695C49.3433 10.4789 50.2932 8.69304 50.2932 6.66361C50.2932 3.07828 47.3757 0.169434 43.7797 0.169434C40.1837 0.169434 37.2661 3.07828 37.2661 6.66361C37.2661 8.69304 38.216 10.4789 39.668 11.6695L28.6085 30.9626C27.4008 33.0732 24.6868 33.7768 22.6106 32.5321L12.7996 26.6603C13.166 25.8485 13.3966 24.942 13.3966 23.9814C13.3966 20.3961 10.4791 17.4872 6.88309 17.4872C3.28706 17.4872 0.355957 20.3961 0.355957 23.9814C0.355957 27.5667 3.27349 30.4756 6.86952 30.4756C7.22233 30.4756 7.57515 30.4215 7.9144 30.3673L17.7254 56.4523H69.8339L79.645 30.3673C79.9842 30.4215 80.337 30.4756 80.6899 30.4756C84.2859 30.4756 87.2034 27.5667 87.2034 23.9814C87.2034 20.3961 84.2859 17.4872 80.6899 17.4872Z" fill="#5B6297"/>
</svg>
