<svg width="60" height="68" viewBox="0 0 60 68" fill="none" xmlns="http://www.w3.org/2000/svg">
<path d="M16.875 13.2229C16.875 14.7872 19.3934 16.0563 22.5 16.0563C25.6066 16.0563 28.125 14.7872 28.125 13.2229C28.125 11.6575 25.6066 10.3896 22.5 10.3896C19.3934 10.3896 16.875 11.6575 16.875 13.2229ZM-2.39442e-06 13.2229L-7.43104e-07 51.0007C-4.23883e-07 58.3037 10.0734 64.223 22.5 64.223L42.6645 64.223C47.4832 64.223 50.0203 65.3799 57.532 67.9028C58.7461 68.31 60 67.3998 60 66.1107L60 27.2798C60 25.6542 58.9676 24.2104 57.4359 23.6957C53.5125 22.3782 49.9898 21.1468 45 20.8493L45 13.2229C45 5.92003 34.9266 0.000717703 22.5 0.000718246C10.0734 0.000718789 -2.71364e-06 5.92003 -2.39442e-06 13.2229ZM22.5 26.4452L42.6645 26.4452C47.4773 26.4452 50.6379 27.392 54.375 28.641L54.375 60.8466C49.9781 59.3638 47.0836 58.5563 42.6645 58.5563L22.5 58.5563C12.3551 58.5563 5.625 54.0088 5.625 51.0007L5.625 21.9484C9.74883 24.7003 15.7711 26.4452 22.5 26.4452ZM39.375 13.2229C39.375 16.231 32.6449 20.7785 22.5 20.7785C12.3551 20.7785 5.625 16.231 5.625 13.2229C5.625 10.2149 12.3551 5.66739 22.5 5.66739C32.6449 5.66739 39.375 10.2149 39.375 13.2229Z" fill="white"/>
</svg>
