<svg width="169" height="119" viewBox="0 0 169 119" fill="none" xmlns="http://www.w3.org/2000/svg">
<path d="M141.96 51.748C143.043 48.9268 143.65 45.8418 143.65 42.625C143.65 28.6504 132.295 17.3125 118.3 17.3125C113.098 17.3125 108.239 18.8945 104.225 21.584C96.9109 8.92773 83.2589 0.4375 67.6 0.4375C44.2569 0.4375 25.35 19.3164 25.35 42.625C25.35 43.3369 25.3764 44.0488 25.4028 44.7607C10.6153 49.9551 0 64.0352 0 80.5938C0 101.556 17.032 118.562 38.025 118.562H135.2C153.869 118.562 169 103.454 169 84.8125C169 68.4912 157.381 54.8594 141.96 51.748ZM103.882 67.9375H86.6125V97.4688C86.6125 99.7891 84.7113 101.688 82.3875 101.688H69.7125C67.3887 101.688 65.4875 99.7891 65.4875 97.4688V67.9375H48.2178C44.4417 67.9375 42.5669 63.4023 45.2339 60.7393L73.0661 32.9482C74.7033 31.3135 77.3967 31.3135 79.0339 32.9482L106.866 60.7393C109.533 63.4023 107.632 67.9375 103.882 67.9375Z" fill="#F0BC67"/>
</svg>
