<svg width="160" height="114" viewBox="0 0 160 114" fill="none" xmlns="http://www.w3.org/2000/svg">
<circle cx="57" cy="57" r="57" fill="#333865"/>
<rect x="57" y="34" width="103" height="45" rx="22.5" fill="#333865"/>
<g clip-path="url(#clip0_16_52)">
<path d="M43.875 36.2229C43.875 37.7872 46.3934 39.0563 49.5 39.0563C52.6066 39.0563 55.125 37.7872 55.125 36.2229C55.125 34.6575 52.6066 33.3896 49.5 33.3896C46.3934 33.3896 43.875 34.6575 43.875 36.2229ZM27 36.2229L27 74.0007C27 81.3037 37.0734 87.223 49.5 87.223L69.6645 87.223C74.4832 87.223 77.0203 88.3799 84.532 90.9028C85.7461 91.31 87 90.3998 87 89.1107L87 50.2798C87 48.6542 85.9676 47.2104 84.4359 46.6957C80.5125 45.3782 76.9898 44.1468 72 43.8493L72 36.2229C72 28.92 61.9266 23.0007 49.5 23.0007C37.0734 23.0007 27 28.92 27 36.2229ZM49.5 49.4452L69.6645 49.4452C74.4773 49.4452 77.6379 50.392 81.375 51.641L81.375 83.8466C76.9781 82.3638 74.0836 81.5563 69.6645 81.5563L49.5 81.5563C39.3551 81.5563 32.625 77.0088 32.625 74.0007L32.625 44.9484C36.7488 47.7003 42.7711 49.4452 49.5 49.4452ZM66.375 36.2229C66.375 39.231 59.6449 43.7785 49.5 43.7785C39.3551 43.7785 32.625 39.231 32.625 36.2229C32.625 33.2149 39.3551 28.6674 49.5 28.6674C59.6449 28.6674 66.375 33.2149 66.375 36.2229Z" fill="#5B6297"/>
</g>
<defs>
<clipPath id="clip0_16_52">
<rect width="68" height="60" fill="white" transform="translate(27 91) rotate(-90)"/>
</clipPath>
</defs>
</svg>
