<svg width="168" height="134" viewBox="0 0 168 134" fill="none" xmlns="http://www.w3.org/2000/svg">
<g clip-path="url(#clip0_16_29)">
<path d="M58.8 67C77.3587 67 92.4 52.0035 92.4 33.5C92.4 14.9965 77.3587 0 58.8 0C40.2412 0 25.2 14.9965 25.2 33.5C25.2 52.0035 40.2412 67 58.8 67ZM82.32 75.375H77.9362C72.1087 78.0445 65.625 79.5625 58.8 79.5625C51.975 79.5625 45.5175 78.0445 39.6637 75.375H35.28C15.8025 75.375 0 91.1305 0 110.55V121.438C0 128.373 5.64375 134 12.6 134H84.7612C84.1312 132.22 83.8687 130.336 84.0787 128.425L85.8637 112.487L86.1787 109.582L88.2525 107.514L108.544 87.2832C102.112 80.0336 92.7937 75.375 82.32 75.375V75.375ZM94.2112 113.403L92.4262 129.368C92.1375 132.037 94.395 134.288 97.0462 133.974L113.032 132.194L149.231 96.1031L130.41 77.3379L94.2112 113.403V113.403ZM166.162 70.3762L156.214 60.457C153.772 58.023 149.782 58.023 147.341 60.457L137.419 70.35L136.343 71.423L155.19 90.1883L166.162 79.2484C168.604 76.7883 168.604 72.8363 166.162 70.3762V70.3762Z" fill="#5B6297"/>
</g>
<defs>
<clipPath id="clip0_16_29">
<rect width="168" height="134" fill="white"/>
</clipPath>
</defs>
</svg>
